<svg
    xmlns="http://www.w3.org/2000/svg"
    viewBox="0 0 1000 1000"
    id="vector">
    <path
        id="path"
        d="M 500 1000 L 500 1000 C 223.9 1000 0 776.1 0 500 L 0 500 C 0 223.9 223.9 0 500 0 L 500 0 C 776.1 0 1000 223.9 1000 500 L 1000 500 C 1000 776.1 776.1 1000 500 1000 Z"
        fill="#393536"/>
    <path
        id="path_1"
        d="M 630 1000 L 630 612.7 L 760 612.7 L 779.5 461.8 L 630 461.8 L 630 365.4 C 630 321.7 642.1 291.9 704.8 291.9 L 784.7 291.9 L 784.7 157 C 770.9 155.2 723.4 151.1 668.2 151.1 C 553 151.1 474.1 221.4 474.1 350.6 L 474.1 461.9 L 343.8 461.9 L 343.8 612.8 L 474.1 612.8 L 474.1 1000 L 630 1000 Z"
        fill="#fdcd07"/>
</svg>
