<svg
    xmlns="http://www.w3.org/2000/svg"
    viewBox="0 0 1000 1000"
    id="vector">
    <path
        id="path"
        d="M 500 1000 L 500 1000 C 223.9 1000 0 776.1 0 500 L 0 500 C 0 223.9 223.9 0 500 0 L 500 0 C 776.1 0 1000 223.9 1000 500 L 1000 500 C 1000 776.1 776.1 1000 500 1000 Z"
        fill="#393536"/>
    <path
        id="path_1"
        d="M 500 220.2 C 591.1 220.2 601.9 220.5 637.9 222.2 C 671.2 223.7 689.3 229.3 701.3 234 C 717.2 240.2 728.6 247.6 740.5 259.5 C 752.4 271.4 759.8 282.8 766 298.7 C 770.7 310.7 776.2 328.8 777.8 362.1 C 779.4 398.1 779.8 408.9 779.8 500 C 779.8 591.1 779.5 601.9 777.8 637.9 C 776.3 671.2 770.7 689.3 766 701.3 C 759.8 717.2 752.4 728.6 740.5 740.5 C 728.6 752.4 717.2 759.8 701.3 766 C 689.3 770.7 671.2 776.2 637.9 777.8 C 601.9 779.4 591.1 779.8 500 779.8 C 408.9 779.8 398.1 779.5 362.1 777.8 C 328.8 776.3 310.7 770.7 298.7 766 C 282.8 759.8 271.4 752.4 259.5 740.5 C 247.6 728.6 240.2 717.2 234 701.3 C 229.3 689.3 223.8 671.2 222.2 637.9 C 220.6 601.9 220.2 591.1 220.2 500 C 220.2 408.9 220.5 398.1 222.2 362.1 C 223.7 328.8 229.3 310.7 234 298.7 C 240.2 282.8 247.6 271.4 259.5 259.5 C 271.4 247.6 282.8 240.2 298.7 234 C 310.7 229.3 328.8 223.8 362.1 222.2 C 398.1 220.5 408.9 220.2 500 220.2 M 500 158.7 C 407.3 158.7 395.7 159.1 359.3 160.8 C 323 162.5 298.2 168.2 276.4 176.7 C 254 185.3 234.9 197 216 216 C 197 235 185.4 254 176.6 276.5 C 168.2 298.2 162.4 323 160.7 359.4 C 159 395.8 158.6 407.4 158.6 500.1 C 158.6 592.8 159 604.4 160.7 640.8 C 162.4 677.1 168.1 701.9 176.6 723.7 C 185.3 746 197 765.1 216 784 C 235 803 254 814.6 276.5 823.4 C 298.2 831.8 323 837.6 359.4 839.3 C 395.8 841 407.4 841.4 500.1 841.4 C 592.8 841.4 604.4 841 640.8 839.3 C 677.1 837.6 701.9 831.9 723.7 823.4 C 746 814.7 765.1 803 784 784 C 803 765 814.6 746 823.4 723.5 C 831.8 701.8 837.6 677 839.3 640.6 C 841 604.2 841.4 592.6 841.4 499.9 C 841.4 407.2 841 395.6 839.3 359.2 C 837.6 322.9 831.9 298.1 823.4 276.3 C 814.7 254 803 234.9 784 216 C 765 197 746 185.4 723.5 176.6 C 701.8 168.2 677 162.4 640.6 160.7 C 604.3 159.1 592.7 158.7 500 158.7 L 500 158.7 Z"
        fill="#fdcd07"/>
    <path
        id="path_2"
        d="M 500 324.7 C 403.2 324.7 324.7 403.2 324.7 500 C 324.7 596.8 403.2 675.3 500 675.3 C 596.8 675.3 675.3 596.8 675.3 500 C 675.3 403.2 596.8 324.7 500 324.7 Z M 500 613.8 C 437.2 613.8 386.2 562.9 386.2 500 C 386.2 437.1 437.2 386.2 500 386.2 C 562.8 386.2 613.8 437.1 613.8 500 C 613.8 562.9 562.8 613.8 500 613.8 Z"
        fill="#fdcd07"/>
    <path
        id="path_3"
        d="M 682.2 317.8 M 641.2 317.8 C 641.2 306.93 645.523 296.495 653.209 288.809 C 660.895 281.123 671.33 276.8 682.2 276.8 C 693.07 276.8 703.505 281.123 711.191 288.809 C 718.877 296.495 723.2 306.93 723.2 317.8 C 723.2 328.67 718.877 339.105 711.191 346.791 C 703.505 354.477 693.07 358.8 682.2 358.8 C 671.33 358.8 660.895 354.477 653.209 346.791 C 645.523 339.105 641.2 328.67 641.2 317.8"
        fill="#fdcd07"/>
</svg>
