<svg
    xmlns="http://www.w3.org/2000/svg"
    viewBox="0 0 512 512"
    id="vector">
    <path
        id="path"
        d="M 502 195.543 C 502 298.016 418.93 381.086 316.457 381.086 C 213.984 381.086 130.914 298.016 130.914 195.543 C 130.914 93.07 213.984 10 316.457 10 C 418.93 10 502 93.07 502 195.543 Z M 502 195.543"
        fill="#686c83"
        fill-rule="evenodd"/>
    <path
        id="path_1"
        d="M 246.809 23.52 L 316.274 66.02 L 316.274 130.387 L 258.278 172.524 L 190.598 157.333 L 177.114 73.048 Z M 246.809 23.52"
        fill="#ffffff"
        fill-rule="evenodd"/>
    <path
        id="path_2"
        d="M 132.086 216.355 L 190.598 157.332 L 258.278 172.523 L 280.43 240.707 L 238.602 305.074 L 156.313 289.277 Z M 132.086 216.355"
        fill="#ffffff"
        fill-rule="evenodd"/>
    <path
        id="path_3"
        d="M 379.48 20.98 L 316.64 66.019 L 316.64 130.386 L 374.64 172.523 L 442.32 157.332 L 452.543 69.434 Z M 379.48 20.98"
        fill="#ffffff"
        fill-rule="evenodd"/>
    <path
        id="path_6"
        d="M 500.723 217.305 L 442.321 157.332 L 374.641 172.523 L 352.485 240.707 L 394.313 305.074 L 476.391 289.656 Z M 500.723 217.305"
        fill="#ffffff"
        fill-rule="evenodd"/>
    <path
        id="path_7"
        d="M 352.492 377.578 L 394.312 305.074 L 352.484 240.707 L 280.429 240.707 L 238.601 305.074 L 280.429 377.578 Z M 352.492 377.578"
        fill="#ffffff"
        fill-rule="evenodd"/>
    <path
        id="path_8"
        d="M 485.574 293.613 C 498.707 271.047 507.453 245.633 510.64 218.539 C 510.652 218.453 510.66 218.367 510.671 218.281 C 511.538 210.82 511.999 203.234 511.999 195.543 C 511.999 144.754 492.53 98.43 460.671 63.629 C 460.163 62.918 459.566 62.27 458.886 61.711 C 438.191 39.699 412.472 22.461 383.57 11.867 C 383.05 11.633 382.511 11.437 381.961 11.297 C 361.473 3.992 339.426 0 316.457 0 C 290.84 0 266.359 4.961 243.918 13.957 C 243.309 14.141 242.723 14.383 242.156 14.68 C 214.562 26.055 190.125 43.571 170.547 65.512 C 169.906 66.078 169.336 66.715 168.856 67.418 C 139.008 101.762 120.915 146.578 120.915 195.543 C 120.915 202.883 121.337 210.129 122.13 217.262 C 122.138 217.352 122.15 217.438 122.161 217.524 C 123.614 230.469 126.337 243.032 130.2 255.09 L 25.157 360.133 C 21.251 364.039 21.251 370.371 25.157 374.278 C 27.11 376.231 29.669 377.208 32.227 377.208 C 34.786 377.208 37.344 376.231 39.297 374.278 L 138.039 275.54 C 140.789 281.645 143.844 287.591 147.184 293.345 C 147.489 294.033 147.875 294.677 148.325 295.275 C 173.114 336.904 212.911 368.591 260.2 382.826 L 189.755 453.267 C 185.853 457.173 185.853 463.505 189.755 467.412 C 191.708 469.365 194.271 470.342 196.829 470.342 C 199.387 470.342 201.946 469.365 203.899 467.412 L 283.083 388.224 C 293.935 390.099 305.083 391.087 316.458 391.087 C 387.688 391.087 450.138 352.794 484.325 295.72 C 484.825 295.072 485.247 294.368 485.575 293.615 Z M 399.051 294.008 L 363.473 239.258 L 382.391 181.035 L 427.355 170.938 L 439.055 168.313 L 490.176 220.809 C 487.071 242.262 480.071 262.473 469.914 280.7 Z M 269.445 239.258 L 233.883 293.98 L 162.801 280.34 C 152.617 261.961 145.641 241.57 142.617 219.93 L 193.805 168.297 L 250.528 181.035 L 263.133 219.836 Z M 170.902 97.516 L 179.922 153.895 L 140.945 193.211 C 141.41 157.824 152.383 124.926 170.902 97.516 Z M 287.695 230.707 L 270.031 176.344 L 316.273 142.75 L 362.516 176.348 L 344.852 230.707 Z M 491.98 193.996 L 452.801 153.762 L 459.727 94.215 C 479.766 122.469 491.657 156.875 491.981 193.996 Z M 442.059 73.039 L 433.207 149.129 L 411.691 153.957 L 376.859 161.777 L 326.641 125.293 L 326.641 71.156 L 380.914 32.258 C 404.121 41.453 424.906 55.461 442.059 73.039 Z M 357.059 24.75 L 316.035 54.152 L 270.301 26.172 C 285.016 22.156 300.489 20 316.457 20 C 330.43 20 344.023 21.648 357.059 24.75 Z M 246.031 34.766 L 306.273 71.625 L 306.273 125.293 L 270.851 151.027 L 256.058 161.777 L 199.402 149.058 L 187.761 76.296 C 204.031 58.749 223.831 44.526 246.031 34.765 Z M 178.266 303.672 L 232.223 314.031 L 259.703 361.664 C 227.238 350.543 199.035 330.156 178.265 303.672 Z M 286.773 368.563 L 250.324 305.383 L 285.855 250.707 L 347.058 250.707 L 382.589 305.383 L 346.148 368.559 C 336.492 370.211 326.574 371.082 316.457 371.082 C 306.34 371.086 296.426 370.215 286.773 368.562 Z M 373.215 361.664 L 400.68 314.051 L 454.43 303.953 C 433.684 330.301 405.567 350.582 373.215 361.664 Z M 373.215 361.664"
        fill="#393536"/>
    <path
        id="path_9"
        d="M 137.723 360.133 L 2.93 494.93 C -0.976 498.836 -0.976 505.168 2.93 509.075 C 4.883 511.024 7.442 512.001 10 512.001 C 12.558 512.001 15.117 511.024 17.07 509.071 L 151.867 374.278 C 155.769 370.372 155.769 364.04 151.867 360.133 C 147.961 356.231 141.629 356.231 137.722 360.133 Z M 137.723 360.133"
        fill="#393536"/>
    <path
        id="path_10"
        d="M 166.148 481.012 C 163.519 481.012 160.941 482.082 159.082 483.942 C 157.223 485.802 156.148 488.38 156.148 491.02 C 156.148 493.649 157.218 496.219 159.082 498.083 C 160.941 499.954 163.52 501.021 166.148 501.021 C 168.781 501.021 171.359 499.955 173.218 498.083 C 175.077 496.224 176.148 493.649 176.148 491.02 C 176.148 488.379 175.082 485.801 173.218 483.942 C 171.359 482.083 168.78 481.012 166.148 481.012 Z M 166.148 481.012"
        fill="#393536"/>
</svg>
