<svg width="17" height="23" viewBox="0 0 17 23" fill="none" xmlns="http://www.w3.org/2000/svg">
<path d="M8.54395 17.4355V14.4843L12.4636 18.4039L8.54395 22.3696V19.4184C6.39199 19.4184 4.53209 18.6498 2.96424 17.1127C1.42713 15.5449 0.658574 13.685 0.658574 11.533C0.658574 9.99589 1.07359 8.59712 1.90363 7.33669L3.33314 8.7662C2.87201 9.59624 2.64145 10.5185 2.64145 11.533C2.64145 13.1623 3.21018 14.5611 4.34764 15.7293C5.51584 16.8668 6.91461 17.4355 8.54395 17.4355ZM8.54395 3.64763C10.6959 3.64763 12.5404 4.43156 14.0775 5.99941C15.6454 7.53652 16.4293 9.38105 16.4293 11.533C16.4293 13.0701 16.0143 14.4689 15.1843 15.7293L13.7547 14.2998C14.2159 13.4698 14.4464 12.5475 14.4464 11.533C14.4464 9.90366 13.8623 8.52027 12.6941 7.38281C11.5567 6.2146 10.1733 5.6305 8.54395 5.6305V8.58175L4.62432 4.66212L8.54395 0.69638V3.64763Z" fill="#FFFFFF"/>
</svg>
