<svg
    xmlns="http://www.w3.org/2000/svg"
    viewBox="0 0 512 512"
    id="vector">
    <path
        id="path_4"
        d="M 245 267 M 0 267 C 0 202.047 25.83 139.688 71.759 93.759 C 117.688 47.83 180.047 22 245 22 C 309.953 22 372.312 47.83 418.241 93.759 C 464.17 139.688 490 202.047 490 267 C 490 331.953 464.17 394.312 418.241 440.241 C 372.312 486.17 309.953 512 245 512 C 180.047 512 117.688 486.17 71.759 440.241 C 25.83 394.312 0 331.953 0 267"
        fill="#ef8318"/>
    <path
        id="path_5"
        d="M 179.309 298.584 L 15.898 491.765 C 14.89 492.956 14.963 494.721 16.067 495.824 C 16.65 496.408 17.419 496.703 18.189 496.703 C 18.876 496.703 19.564 496.468 20.126 495.994 L 213.29 332.595 C 200.548 322.774 189.118 311.335 179.309 298.584 Z"
        fill="#ffd00d"/>
    <path
        id="path_11"
        d="M 152.395 249.941 L 45.71 376.063 C 44.702 377.254 44.775 379.019 45.879 380.122 C 46.462 380.705 47.231 381.001 48.001 381.001 C 48.688 381.001 49.376 380.766 49.938 380.292 L 167.315 281.002 C 161.424 271.198 156.411 260.81 152.395 249.941 Z"
        fill="#ffd00d"/>
    <path
        id="path_12"
        d="M 233.664 346.263 L 135.71 462.063 C 134.702 463.254 134.775 465.019 135.879 466.122 C 136.462 466.705 137.231 467.001 138.001 467.001 C 138.687 467.001 139.376 466.766 139.937 466.292 L 264.872 360.61 C 253.971 356.781 243.529 351.969 233.664 346.263 Z"
        fill="#ffd00d"/>
    <path
        id="path_13"
        d="M 326 371 C 314.897 371 304.022 370.015 293.452 368.131 L 215.71 460.036 C 214.702 461.227 214.775 462.992 215.879 464.095 C 216.462 464.678 217.231 464.974 218.001 464.974 C 218.687 464.974 219.376 464.739 219.937 464.265 L 330.255 370.947 C 328.841 370.978 327.423 371 326 371 Z"
        fill="#ffd00d"/>
    <path
        id="path_14"
        d="M 141 186 C 141 183.294 141.071 180.604 141.186 177.926 L 49.736 286.036 C 48.728 287.227 48.801 288.992 49.905 290.095 C 50.488 290.678 51.257 290.974 52.027 290.974 C 52.714 290.974 53.402 290.739 53.964 290.265 L 143.237 214.749 C 141.769 205.377 141 195.777 141 186 Z"
        fill="#ffd00d"/>
    <path
        id="path_15"
        d="M 326 186 M 140 186 C 140 136.689 159.61 89.347 194.478 54.478 C 229.347 19.61 276.689 0 326 0 C 375.311 0 422.653 19.61 457.522 54.478 C 492.39 89.347 512 136.689 512 186 C 512 235.311 492.39 282.653 457.522 317.522 C 422.653 352.39 375.311 372 326 372 C 276.689 372 229.347 352.39 194.478 317.522 C 159.61 282.653 140 235.311 140 186"
        fill="#eef6ff"/>
    <path
        id="path_16"
        d="M 161.512 272.881 L 194.362 278.084 C 178.859 250.935 170 219.502 170 186 C 170 182.811 170.085 179.643 170.243 176.493 L 166.473 164.547 L 140.185 177.942 L 140.185 177.942 C 140.07 180.614 140 183.299 140 186 C 140 217.385 147.785 246.948 161.512 272.881 L 161.512 272.881 Z"
        fill="#d9eafc"/>
    <path
        id="path_17"
        d="M 269.576 21.268 L 257.971 12.836 C 234.648 22.006 213.633 35.76 196.016 52.977 L 200.836 83.411 C 218.104 57.348 241.761 35.89 269.576 21.268 Z"
        fill="#d9eafc"/>
    <path
        id="path_18"
        d="M 259.479 359.737 L 259.479 359.737 C 280.137 367.651 302.559 372 326 372 C 331.051 372 336.052 371.792 341 371.397 C 310.247 368.942 281.608 358.998 256.893 343.405 L 259.479 359.737 Z"
        fill="#d9eafc"/>
    <path
        id="path_19"
        d="M 485.669 164.101 L 511.795 177.413 C 509.6 129.124 488.995 85.638 456.829 53.803 L 450.721 92.371 L 363.529 34.997 L 394.03 12.837 C 372.959 4.552 350.011 0 326 0 C 301.989 0 279.041 4.552 257.971 12.836 L 288.472 34.996 L 202.163 91.789 L 196.015 52.976 C 163.249 84.997 142.27 129.02 140.184 177.941 L 166.472 164.546 L 202.726 279.408 L 161.511 272.88 C 182.459 312.459 217.268 343.565 259.479 359.736 L 255.139 332.34 L 396.706 332.34 L 392.356 359.799 C 434.599 343.66 469.444 312.571 490.426 272.994 L 449.238 279.517 L 485.669 164.101 Z M 437.128 281.438 L 411.895 285.435 L 369.384 242.923 L 390.216 178.806 L 448.493 145.16 L 475.756 159.051 L 437.128 281.438 Z M 448.836 104.266 L 443.951 135.111 L 387.885 167.482 L 331.487 126.507 L 331.487 58.276 L 354.043 41.888 L 448.836 104.266 Z M 297.958 41.889 L 320.514 58.277 L 320.514 126.506 L 264.339 167.319 L 209.072 135.411 L 204.048 103.685 L 297.958 41.889 Z M 176.386 159.496 L 204.25 145.299 L 261.668 178.448 L 282.417 242.303 L 239.49 285.231 L 214.84 281.328 L 176.386 159.496 Z M 253.401 321.367 L 248.679 291.558 L 290.758 249.48 L 360.422 249.48 L 403.074 292.133 L 398.444 321.366 L 253.401 321.366 L 253.401 321.367 Z"
        fill="#393536"/>
</svg>
