<svg
    xmlns="http://www.w3.org/2000/svg"
    viewBox="0 0 1000 1000"
    id="vector">
    <path
        id="path_4"
        d="M 500 0 L 500 0 C 776.1 0 1000 223.9 1000 500 L 1000 500 C 1000 776.1 776.1 1000 500 1000 L 500 1000 C 223.9 1000 0 776.1 0 500 L 0 500 C 0 223.9 223.9 0 500 0 Z"
        fill="#393536"/>
    <path
        id="path_5"
        d="M 384 754 C 619.8 754 748.9 558.6 748.9 389.1 C 748.9 383.6 748.9 378 748.5 372.5 C 773.6 354.3 795.3 331.9 812.5 306.1 C 789.1 316.5 764.3 323.3 738.9 326.3 C 765.7 310.3 785.7 285.1 795.3 255.4 C 770.1 270.3 742.6 280.9 713.9 286.5 C 665.3 234.9 584.1 232.4 532.5 280.9 C 499.2 312.2 485.1 358.9 495.4 403.4 C 392.3 398.2 296.2 349.5 231.1 269.4 C 197.1 328 214.4 402.9 270.8 440.6 C 250.4 440 230.4 434.5 212.6 424.6 C 212.6 425.1 212.6 425.7 212.6 426.2 C 212.6 487.2 255.6 539.8 315.5 551.9 C 296.6 557 276.8 557.8 257.6 554.1 C 274.4 606.3 322.5 642.1 377.4 643.2 C 332 678.9 275.9 698.3 218.2 698.2 C 208 698.2 197.8 697.6 187.7 696.3 C 246.1 734 314.4 754 384 754"
        fill="#fdcd07"/>
</svg>
