<svg
    xmlns="http://www.w3.org/2000/svg"
    viewBox="0 0 32 32"
    id="vector">
    <path
        id="path"
        d="M 16 0 C 7.163 0 0 7.163 0 16 C 0 24.836 7.163 32 16 32 C 24.837 32 32 24.836 32 16 C 32 7.163 24.837 0 16 0 Z"
        fill="#393536"/>
    <path
        id="path_1"
        d="M 4.905 13.267 L 5.341 15.503 C 5.452 16.073 5.564 16.677 5.654 17.303 L 5.676 17.303 C 5.788 16.677 5.945 16.051 6.078 15.514 L 6.66 13.267 L 8.002 13.267 L 8.549 15.447 C 8.695 16.062 8.84 16.677 8.952 17.303 L 8.974 17.303 C 9.052 16.677 9.164 16.062 9.287 15.436 L 9.757 13.267 L 11.423 13.267 L 9.745 18.734 L 8.147 18.734 L 7.632 16.81 C 7.498 16.273 7.397 15.781 7.286 15.111 L 7.264 15.111 C 7.163 15.793 7.052 16.296 6.906 16.81 L 6.358 18.733 L 4.76 18.733 L 3.172 13.266 L 4.905 13.266 Z"
        fill="#fdcd07"/>
    <path
        id="path_2"
        d="M 13.608 13.267 L 14.044 15.503 C 14.155 16.073 14.267 16.677 14.357 17.303 L 14.379 17.303 C 14.491 16.677 14.648 16.051 14.781 15.514 L 15.363 13.267 L 16.705 13.267 L 17.252 15.447 C 17.398 16.062 17.543 16.677 17.655 17.303 L 17.677 17.303 C 17.755 16.677 17.867 16.062 17.99 15.436 L 18.46 13.267 L 20.126 13.267 L 18.448 18.734 L 16.85 18.734 L 16.336 16.811 C 16.202 16.274 16.101 15.782 15.99 15.112 L 15.967 15.112 C 15.866 15.794 15.755 16.297 15.609 16.811 L 15.061 18.734 L 13.463 18.734 L 11.875 13.267 L 13.608 13.267 Z"
        fill="#fdcd07"/>
    <path
        id="path_3"
        d="M 22.31 13.267 L 22.746 15.503 C 22.857 16.073 22.969 16.677 23.059 17.303 L 23.081 17.303 C 23.193 16.677 23.35 16.051 23.483 15.514 L 24.065 13.267 L 25.407 13.267 L 25.954 15.447 C 26.1 16.062 26.245 16.677 26.357 17.303 L 26.379 17.303 C 26.457 16.677 26.569 16.062 26.692 15.436 L 27.162 13.267 L 28.828 13.267 L 27.15 18.734 L 25.552 18.734 L 25.038 16.811 C 24.904 16.274 24.803 15.782 24.692 15.112 L 24.669 15.112 C 24.568 15.794 24.457 16.297 24.311 16.811 L 23.763 18.734 L 22.165 18.734 L 20.577 13.267 L 22.31 13.267 Z"
        fill="#fdcd07"/>
</svg>
