<svg
    xmlns="http://www.w3.org/2000/svg"
    viewBox="0 0 1000 1000"
    id="vector">
    <path
        id="path_4"
        d="M 500 1000 L 500 1000 C 223.9 1000 0 776.1 0 500 L 0 500 C 0 223.9 223.9 0 500 0 L 500 0 C 776.1 0 1000 223.9 1000 500 L 1000 500 C 1000 776.1 776.1 1000 500 1000 Z"
        fill="#393536"/>
    <path
        id="path_5"
        d="M 818.2 339.1 C 810.6 310.3 788.1 287.7 759.5 280 C 707.7 266 500.1 266 500.1 266 C 500.1 266 292.4 266 240.7 280 C 212.1 287.7 189.6 310.3 182 339.1 C 168 391.2 168 500 168 500 C 168 500 168 608.8 181.9 660.9 C 189.5 689.7 212 712.3 240.6 720 C 292.4 734 500 734 500 734 C 500 734 707.7 734 759.4 720 C 788 712.3 810.5 689.7 818.1 660.9 C 832 608.8 832 500 832 500 C 832 500 832 391.2 818.2 339.1 Z M 432.1 598.7 L 432.1 401.3 L 605.6 500 L 432.1 598.7 Z"
        fill="#fdcd07"/>
</svg>
